<svg width="35" height="35" viewBox="0 0 35 35" fill="none" xmlns="http://www.w3.org/2000/svg">
<path d="M5.83203 2.9165V32.0832L8.7487 30.6248L11.6654 32.0832L14.582 30.6248L17.4987 32.0832L20.4154 30.6248L23.332 32.0832L26.2487 30.6248L29.1654 32.0832V2.9165L26.2487 4.37484L23.332 2.9165L20.4154 4.37484L17.4987 2.9165L14.582 4.37484L11.6654 2.9165L8.7487 4.37484L5.83203 2.9165Z" stroke="#7738C8" stroke-width="2" stroke-linecap="round" stroke-linejoin="round"/>
<path d="M23.3346 11.6665H14.5846C13.8111 11.6665 13.0692 11.9738 12.5222 12.5208C11.9753 13.0678 11.668 13.8096 11.668 14.5832C11.668 15.3567 11.9753 16.0986 12.5222 16.6456C13.0692 17.1925 13.8111 17.4998 14.5846 17.4998H20.418C21.1915 17.4998 21.9334 17.8071 22.4804 18.3541C23.0273 18.9011 23.3346 19.643 23.3346 20.4165C23.3346 21.1901 23.0273 21.9319 22.4804 22.4789C21.9334 23.0259 21.1915 23.3332 20.418 23.3332H11.668" stroke="#7738C8" stroke-width="2" stroke-linecap="round" stroke-linejoin="round"/>
<path d="M17.5 25.5207V9.479" stroke="#7738C8" stroke-width="2" stroke-linecap="round" stroke-linejoin="round"/>
</svg>
