<svg width="30" height="30" viewBox="0 0 30 30" fill="none" xmlns="http://www.w3.org/2000/svg">
<path d="M9 23C9.55229 23 10 23.4477 10 24C10 24.5523 9.55229 25 9 25C8.44771 25 8 24.5523 8 24C8 23.4477 8.44771 23 9 23Z" stroke="#7738C8" stroke-width="4"/>
<path d="M21 23C21.5523 23 22 23.4477 22 24C22 24.5523 21.5523 25 21 25C20.4477 25 20 24.5523 20 24C20 23.4477 20.4477 23 21 23Z" stroke="#7738C8" stroke-width="4"/>
<path d="M2.81096 2.86558C2.3225 2.69385 1.78731 2.95061 1.61558 3.43906C1.44385 3.92752 1.70061 4.46271 2.18906 4.63443L2.81096 2.86558ZM25.8223 12.3534L26.7404 12.5428L26.7416 12.537L25.8223 12.3534ZM7.13511 12.2V8.79796H5.26011V12.2H7.13511ZM3.13747 2.98037L2.81096 2.86558L2.18906 4.63443L2.51557 4.74923L3.13747 2.98037ZM13.6719 20.3125H20.3005V18.4375H13.6719V20.3125ZM7.13511 8.79796C7.13511 7.91401 7.13638 7.17638 7.0715 6.57697C7.00433 5.9565 6.85882 5.3906 6.50635 4.8748L4.95827 5.93267C5.0711 6.09778 5.15822 6.32456 5.20738 6.77875C5.25883 7.25401 5.26011 7.87302 5.26011 8.79796H7.13511ZM2.51557 4.74923C3.35008 5.04263 3.89852 5.23707 4.30208 5.43508C4.68111 5.62106 4.8482 5.7716 4.95827 5.93267L6.50635 4.8748C6.15112 4.35497 5.67881 4.02205 5.12802 3.7518C4.60175 3.49357 3.92995 3.259 3.13747 2.98037L2.51557 4.74923ZM5.26011 12.2C5.26011 14.0156 5.27715 15.3249 5.44846 16.3251C5.63136 17.393 5.99653 18.1576 6.67932 18.8778L8.03998 17.5878C7.63978 17.1656 7.42392 16.7523 7.29655 16.0086C7.1576 15.1973 7.13511 14.0613 7.13511 12.2H5.26011ZM13.6719 18.4375C11.9009 18.4375 10.672 18.4353 9.74621 18.304C8.8527 18.1773 8.38066 17.947 8.03998 17.5878L6.67932 18.8778C7.42165 19.6608 8.36266 20.0016 9.48296 20.1604C10.5709 20.3148 11.9567 20.3125 13.6719 20.3125V18.4375ZM6.19761 8.58751H21.361V6.71251H6.19761V8.58751ZM24.904 12.1642L24.2794 15.1951L26.1158 15.5736L26.7404 12.5428L24.904 12.1642ZM21.361 8.58751C22.4315 8.58751 23.3736 8.58876 24.1171 8.67187C24.4866 8.71317 24.7631 8.77055 24.9574 8.83882C25.1591 8.90971 25.1913 8.9641 25.1751 8.943L26.6613 7.79973C26.3675 7.41796 25.9545 7.20182 25.579 7.06985C25.1959 6.93523 24.7626 6.85735 24.3255 6.80848C23.4558 6.71126 22.3968 6.71251 21.361 6.71251V8.58751ZM26.7416 12.537C26.9531 11.4771 27.1328 10.5878 27.1768 9.87548C27.2219 9.14273 27.1385 8.42022 26.6613 7.79973L25.1751 8.943C25.2526 9.04386 25.3383 9.22547 25.3053 9.75997C25.271 10.3149 25.1253 11.056 24.9029 12.1699L26.7416 12.537ZM20.3005 20.3125C21.2526 20.3125 22.0516 20.3141 22.6958 20.2353C23.3654 20.1534 23.9761 19.9743 24.5093 19.5398L23.3248 18.0863C23.1683 18.2138 22.9464 18.3156 22.468 18.3743C21.964 18.4359 21.2996 18.4375 20.3005 18.4375V20.3125ZM24.2794 15.1951C24.0776 16.1736 23.9419 16.8241 23.7798 17.3053C23.6259 17.7619 23.4813 17.9588 23.3248 18.0863L24.5093 19.5398C25.0424 19.1053 25.3411 18.5433 25.5566 17.904C25.7639 17.289 25.9235 16.5061 26.1158 15.5736L24.2794 15.1951Z" fill="#7738C8"/>
</svg>
