<svg width="30" height="30" viewBox="0 0 30 30" fill="none" xmlns="http://www.w3.org/2000/svg">
<path d="M1.25 1.25H6.25L9.6 17.9875C9.71431 18.563 10.0274 19.0799 10.4844 19.4479C10.9415 19.8158 11.5134 20.0112 12.1 20H24.25C24.8366 20.0112 25.4085 19.8158 25.8656 19.4479C26.3226 19.0799 26.6357 18.563 26.75 17.9875L28.75 7.5H7.5M12.5 26.25C12.5 26.9404 11.9404 27.5 11.25 27.5C10.5596 27.5 10 26.9404 10 26.25C10 25.5596 10.5596 25 11.25 25C11.9404 25 12.5 25.5596 12.5 26.25ZM26.25 26.25C26.25 26.9404 25.6904 27.5 25 27.5C24.3096 27.5 23.75 26.9404 23.75 26.25C23.75 25.5596 24.3096 25 25 25C25.6904 25 26.25 25.5596 26.25 26.25Z" stroke="#7738C8" stroke-width="2" stroke-linecap="round" stroke-linejoin="round"/>
<line x1="16.5257" y1="18.1581" x2="13.9958" y2="10.5686" stroke="#382057"/>
<line x1="16.938" y1="17.5039" x2="24.938" y2="16.5039" stroke="#382057"/>
<line x1="18.5659" y1="16.2481" x2="14.5659" y2="9.24807" stroke="#382057"/>
<line x1="12.5031" y1="18.0552" x2="11.6196" y2="10.1041" stroke="#382057"/>
<line x1="14.5119" y1="18.1085" x2="12.7765" y2="10.299" stroke="#382057"/>
</svg>
