<svg width="30" height="30" viewBox="0 0 30 30" fill="none" xmlns="http://www.w3.org/2000/svg">
<rect width="30" height="30" fill=""/>
<path d="M13.0479 16.4633L13.126 15.4866C10.3093 14.6744 8.25001 12.077 8.25001 9C8.25001 5.27208 11.2721 2.25 15 2.25C18.7279 2.25 21.75 5.27208 21.75 9C21.75 12.0771 19.6906 14.6744 16.874 15.4866L16.952 16.4634C19.2588 16.7445 21.1947 17.5543 22.6408 18.9794C24.4788 20.7909 25.45 23.524 25.45 27.2C25.45 27.4485 25.2485 27.6499 25.0002 27.6498H25C24.7514 27.6498 24.55 27.4485 24.55 27.1998C24.55 23.6753 23.6207 21.2088 22.0092 19.6205L22.0092 19.6205C20.3961 18.0308 18.0274 17.25 14.9999 17.25C11.9724 17.25 9.60388 18.0308 7.99086 19.6205C6.37918 21.2088 5.45005 23.6754 5.45005 27.1998C5.45005 27.4484 5.24863 27.6498 5.00005 27.6498C4.75148 27.6498 4.55005 27.4484 4.55005 27.1998C4.55005 23.524 5.52112 20.7909 7.35912 18.9795C8.80525 17.5543 10.7412 16.7444 13.0479 16.4633ZM15 3.15C11.7691 3.15 9.15001 5.76914 9.15001 9C9.15001 12.2309 11.7691 14.85 15 14.85C18.2309 14.85 20.85 12.2309 20.85 9C20.85 5.76914 18.2309 3.15 15 3.15Z" fill="#7738C8" stroke="#7738C8"/>
</svg>
