<svg width="30" height="30" viewBox="0 0 30 30" fill="none" xmlns="http://www.w3.org/2000/svg">
<path d="M8.125 6.25C5 6.25 2.5 8.75 2.5 11.875V21.25C2.5 21.913 2.76339 22.5489 3.23223 23.0178C3.70107 23.4866 4.33696 23.75 5 23.75H25C25.663 23.75 26.2989 23.4866 26.7678 23.0178C27.2366 22.5489 27.5 21.913 27.5 21.25V11.25C27.5 8.5 25.25 6.25 22.5 6.25H8.125ZM8.125 6.25C11.25 6.25 13.75 8.75 13.75 11.875V21.25C13.75 21.913 13.4866 22.5489 13.0178 23.0178C12.5489 23.4866 11.913 23.75 11.25 23.75M18.75 11.25H22.5V13.75M7.5 12.5H8.75" stroke="#7738C8" stroke-width="2" stroke-linecap="round" stroke-linejoin="round"/>
</svg>
